Coordinates														
version=1														
nRows=34														
nColumns=15														
inDegrees=yes														
														
"Units are S.I. units (second, meters, Newtons, ...)"														
"If the header above contains a line with 'inDegrees', this indicates whether rotational values are in degrees (yes) or radians (no)."														
														
endheader														
time	/jointset/hip_l/hip_flexion_l/value	/jointset/hip_l/hip_adduction_l/value	/jointset/hip_l/hip_rotation_l/value	/jointset/hip_r/hip_flexion_r/value	/jointset/hip_r/hip_adduction_r/value	/jointset/hip_r/hip_rotation_r/value	/jointset/walker_knee_l/knee_angle_l/value	/jointset/walker_knee_r/knee_angle_r/value	/jointset/ankle_l/ankle_angle_l/value	/jointset/ankle_r/ankle_angle_r/value	/jointset/subtalar_l/subtalar_angle_l/value	/jointset/subtalar_r/subtalar_angle_r/value	/jointset/mtp_l/mtp_angle_l/value	/jointset/mtp_r/mtp_angle_r/value
12.51	-20.23625736	-38.00389855	-31.36956569	-25.79978551	4.11435476	-14.94024494	107.0293014	36.67506215	-10.71326313	-47.80632708	1.2058868	-34.66261809	-20.03287805	-9.13691181
12.52	-26.02042419	-33.99888497	19.314485	75.99150191	-17.10847577	-10.94762165	13.53268676	46.28128929	42.43090593	9.74817543	-29.89505946	-13.54366607	3.59999309	-37.37502975
12.53	77.09602254	17.95442919	21.33913929	-20.83492309	1.47707908	26.94153399	16.41608381	14.94555703	-44.51866229	-30.4035649	29.96889353	0.99751373	-32.86786707	-28.90804517
12.54	107.3356153	-11.68291846	12.99025458	42.54219215	-29.12234866	24.75980014	6.28244499	29.24502962	14.63634955	4.44838026	-18.31360245	11.78823653	-6.76460873	-28.17740369
12.55	32.13734335	4.59413185	-38.32053228	103.3972915	-10.90754816	-33.89021378	41.81427187	41.68481997	34.92222691	37.86856852	-0.93390686	-18.17329033	-41.11427193	-35.60500974
12.56	24.35450223	0.0319291	21.64928466	-21.15212414	-49.32017876	-6.11333552	94.53316041	11.5489479	-42.01788908	26.67982194	14.17177775	-2.18188481	-15.99926757	-42.43431592
12.57	107.7711558	19.62964274	-22.67908122	93.32788196	-23.71089688	-30.09804305	48.87996699	102.2886769	21.91497873	9.91121013	13.57543566	-33.81464529	-34.24913117	2.60083165
12.58	20.67272043	-35.38141242	29.62171538	103.2861096	-19.45602408	-3.52475302	132.8222421	133.2118006	-41.48970302	0.36526555	10.62739385	27.02525567	-43.96739668	-8.00646582
12.59	36.90380596	-35.75911483	30.18427451	75.42178484	7.55078733	-30.05496949	128.119472	33.07030919	21.9211281	-21.20016876	-11.529495	-30.217864	-21.30424788	-7.15916231
12.6	59.82697288	-5.98385267	-21.52403145	105.7570677	-38.7411156	26.11862236	27.54235338	32.58456833	-15.58793446	47.01050016	-7.53016992	21.5023105	-32.89324943	-24.41468484
12.61	48.55430244	12.1767936	32.61906155	48.07406389	18.95904998	28.05204416	28.36372952	33.28451558	-17.18460882	11.8997791	11.59831203	-5.96301733	-18.86829528	3.68588336
12.62	15.65436524	-9.49871782	12.78578794	34.45890731	-12.98048158	34.53890558	109.0991435	112.8942669	25.22884779	33.57874215	-9.02747637	4.09160473	-26.96093355	-19.46900685
12.63	99.76454949	-21.82815768	-18.07448992	23.67462961	3.59218667	9.78549659	135.0086444	109.5341481	-38.73311085	-19.22137301	23.59492225	-21.4171336	-27.71240842	-41.60425478
12.64	44.19608903	-15.59520868	-10.03681675	-4.93741072	-38.68369056	-20.89916956	54.69651927	112.3614749	-26.40683855	45.55305746	22.07566934	-26.45874059	-38.00536709	-32.49631665
12.65	116.9910617	10.83267043	-34.21516716	34.47405397	-34.84733727	-0.65882948	37.89944616	61.96034061	-46.2230596	36.38233125	4.01704832	-10.19912099	-30.40689338	0.12671673
12.66	88.31530477	-8.40701067	2.52300129	29.76817131	12.23670481	33.31531203	43.85369337	49.76442419	2.54671586	-12.98223428	19.18833326	6.60049958	-12.23816114	-36.0609727
12.67	34.73880968	-20.88763182	5.22298495	40.91305779	2.27811341	-15.50420221	16.97189277	108.9939803	47.5645723	-47.56824482	30.4544375	21.12008583	-18.89128868	-36.21286324
12.68	17.04797755	-7.15678121	0.681342	62.38653733	-3.87234747	1.40621736	93.02043041	43.61237699	-25.12834979	-0.04932734	-24.61561727	34.06107612	-21.92087682	-11.98291446
12.69	24.05479133	-37.74443748	23.25704442	36.91521572	-37.35124141	-12.43397901	134.5567831	101.0914813	-22.0520931	43.72541518	-16.45521377	4.0779644	-26.27638478	-22.85179195
12.7	1.56899248	19.47936898	-36.44676863	-27.75174264	-9.20256726	32.8831564	123.8941396	125.1426416	9.71612819	28.58091998	19.03548527	-22.90190466	-41.02501639	-35.0608399
12.71	39.78980674	15.12855449	21.15541683	116.0343442	-18.19186358	20.82029789	120.3280178	127.1555764	-4.91178843	-24.19933876	-34.34520382	4.59961493	-7.08593606	3.07623897
12.72	82.49782109	14.39579608	18.87852889	96.6728804	-2.71410272	5.94026993	108.4102068	120.9573157	-27.931172	47.81210483	-6.65762177	-26.51878862	-43.59498894	-28.12897661
12.73	8.01018446	10.2571268	8.90969696	60.43067472	-5.53796768	29.4807176	1.42377485	71.83137566	33.92489748	38.37368508	-32.69001489	-5.00347615	-6.26612523	-16.22425983
12.74	-20.34209347	9.81139129	26.87283585	80.28520652	-41.09690215	25.4144905	116.3337117	32.92892454	48.18435006	19.98209101	31.60179615	4.28341021	4.95017876	-44.58036461
12.75	74.6662179	-15.47491248	-5.6502828	24.12927039	17.64013001	8.78463265	16.4558631	61.78442824	23.83175145	-47.34720216	3.1317745	-6.97356873	-39.79645193	-13.71082655
12.76	31.65583901	-31.29830234	-14.70887935	107.8028747	-13.24128854	-30.49679987	118.3176171	127.9251668	0.63904849	15.35149915	17.04182227	-32.34681657	-42.15277374	-16.07974397
12.77	61.05888727	-4.54818695	-31.39473331	90.43815265	-27.06239066	-16.0398058	39.34658081	31.34565575	-19.15785902	-16.4995413	32.65217335	-16.59056179	-27.42748713	-10.29326609
12.78	-6.26169973	-1.52998095	-3.12886075	38.60584361	-27.49881364	25.92519207	94.11690954	4.88294063	14.86335917	44.2947746	-17.04029049	6.31899621	-40.4453556	-10.76194655
12.79	17.09600431	-8.67739496	-26.59709184	108.4386849	-2.08420554	-2.79319627	77.07507207	49.00876706	21.97603723	48.64922923	-10.72494091	-1.15142591	-21.12308861	-10.15177481
12.8	61.5802053	-29.10010124	-7.70229303	-12.29496462	-6.25810701	-32.32563518	40.00674321	116.6481035	13.16881015	1.80030696	-22.62762045	-14.16188194	2.42126801	0.79335966
12.81	-21.58186022	4.92700556	34.24169848	7.99164927	-1.22937257	17.62665917	99.64828916	55.87231365	19.61726053	-38.80032891	-5.37898638	33.11195384	-36.8280416	-38.44065522
12.82	-24.21937093	-25.55924804	-25.86284399	86.57385903	-49.10030517	-31.59584008	33.40003411	68.49315275	-25.03410394	13.79942533	23.19397199	-28.94953312	-1.05112078	-43.44560087
12.83	115.609141	-33.5514201	1.15835914	68.1759559	10.26498767	14.49867614	78.67373704	99.87738428	-8.5284845	-40.74273316	-23.84468684	3.35500349	-0.70223538	-15.65947953
12.84	108.341236	9.53954235	-22.50089998	32.06714552	-4.6699952	17.2942644	57.38121054	52.65567567	24.59063992	5.97750355	22.40551404	10.54132693	-38.30753397	-39.2716497
